<svg width="48" height="48" viewBox="0 0 48 48" fill="none" xmlns="http://www.w3.org/2000/svg">
<path d="M23.5312 14.1188C23.5312 14.2431 23.5806 14.3623 23.6685 14.4502C23.7565 14.5381 23.8757 14.5875 24 14.5875C24.1243 14.5875 24.2435 14.5381 24.3315 14.4502C24.4194 14.3623 24.4688 14.2431 24.4688 14.1188C24.4688 13.9945 24.4194 13.8752 24.3315 13.7873C24.2435 13.6994 24.1243 13.65 24 13.65C23.8757 13.65 23.7565 13.6994 23.6685 13.7873C23.5806 13.8752 23.5313 13.9945 23.5312 14.1188Z" fill="#E73B37"/>
<path d="M18.7641 34.8984C18.8625 34.8656 18.9562 34.8328 19.0547 34.8047C18.9609 34.8328 18.8625 34.8656 18.7641 34.8984ZM18.7641 34.8984C18.8625 34.8656 18.9562 34.8328 19.0547 34.8047C18.9609 34.8328 18.8625 34.8656 18.7641 34.8984Z" fill="white"/>
<path d="M23.9906 12.0281C25.1344 12.0281 26.0625 12.9562 26.0625 14.1C26.0625 15.2437 25.1344 16.1718 23.9906 16.1718C22.8469 16.1718 21.9187 15.2437 21.9187 14.1C21.9187 12.9562 22.8516 12.0281 23.9906 12.0281ZM23.9906 11.0906C22.3266 11.0906 20.9812 12.4359 20.9812 14.1C20.9812 15.764 22.3266 17.1093 23.9906 17.1093C25.6547 17.1093 27 15.764 27 14.1C27 12.4359 25.6547 11.0906 23.9906 11.0906Z" fill="#E73B37"/>
<path d="M34.2516 24.8203C34.2703 24.4125 34.2797 24.0047 34.2797 23.5922C34.2797 15.1734 30.2437 7.69685 24 2.9906C17.7609 7.69685 13.725 15.1734 13.725 23.5922C13.725 24.0047 13.7344 24.4125 13.7531 24.8156C11.1281 27.4406 9.50625 31.064 9.50625 35.0672C9.50625 37.9593 10.35 40.65 11.8078 42.9093C13.2281 40.575 15.3094 38.6859 17.7937 37.5047C19.6219 36.6328 21.6703 36.1453 23.8312 36.1453C26.0953 36.1453 28.2328 36.6797 30.1266 37.6312C32.5875 38.864 34.6406 40.8047 36.0141 43.1812C37.5797 40.8656 38.4938 38.0765 38.4938 35.0672C38.4938 31.064 36.8719 27.4453 34.2516 24.8203ZM16.4578 17.9718C16.8891 16.1953 17.5312 14.4703 18.3609 12.839C19.1791 11.2313 20.1794 9.72296 21.3422 8.34373C22.1578 7.3781 23.0484 6.47341 24.0047 5.64841C24.9609 6.47341 25.8516 7.3781 26.6672 8.34373C27.8297 9.72654 28.8328 11.2406 29.6484 12.839C30.4781 14.4703 31.1203 16.1953 31.5516 17.9718C31.9594 19.65 32.1844 21.3797 32.2172 23.1234C29.8781 21.5156 27.0469 20.5734 24 20.5734C20.9531 20.5734 18.1266 21.5156 15.7922 23.1234C15.825 21.3797 16.05 19.65 16.4578 17.9718ZM12.2109 39.0281C11.7844 37.7625 11.5687 36.4265 11.5687 35.0718C11.5687 33.3937 11.8969 31.7625 12.5437 30.2343C12.9375 29.3062 13.4344 28.4343 14.0391 27.6328C14.4937 30.5156 15.4219 33.2437 16.7484 35.7234C15.0422 36.5578 13.5141 37.6734 12.2109 39.0281ZM29.2828 35.0297C29.25 35.0156 29.2125 35.0062 29.1797 34.9922C29.1609 34.9828 29.1375 34.9781 29.1188 34.9687C29.0906 34.9593 29.0578 34.9453 29.0297 34.9359C28.9922 34.9218 28.9594 34.9125 28.9219 34.8984C28.8844 34.8843 28.8516 34.875 28.8141 34.8656L28.7719 34.8515C28.725 34.8375 28.6734 34.8187 28.6266 34.8047C28.5703 34.7859 28.5141 34.7719 28.4625 34.7531L28.3219 34.7109C28.3125 34.7062 28.3031 34.7062 28.2891 34.7015C28.2375 34.6875 28.1812 34.6687 28.1297 34.6547C28.0734 34.6406 28.0172 34.6265 27.9656 34.6125L27.7969 34.5703L27.6281 34.5281C27.5813 34.514 27.5297 34.5047 27.4828 34.4953C27.4266 34.4812 27.3703 34.4718 27.3141 34.4578C27.2531 34.4437 27.1969 34.4297 27.1359 34.4203H27.1219C27.0797 34.4109 27.0328 34.4015 26.9906 34.3922C26.9719 34.3875 26.9578 34.3875 26.9391 34.3828C26.8875 34.3734 26.8359 34.364 26.7797 34.3547C26.7234 34.3453 26.6672 34.3359 26.6109 34.3218L26.3578 34.2797C26.3156 34.275 26.2688 34.2656 26.2266 34.2609C26.1891 34.2562 26.1516 34.2468 26.1094 34.2422C25.9875 34.2234 25.8703 34.2093 25.7484 34.1953C25.6922 34.1906 25.6406 34.1812 25.5844 34.1765H25.5656C25.5234 34.1718 25.4812 34.1672 25.4344 34.1625C25.3828 34.1578 25.3359 34.1531 25.2844 34.1484C25.2047 34.139 25.125 34.1343 25.0453 34.1297C25.0078 34.125 24.975 34.125 24.9375 34.1203C24.8953 34.1156 24.8484 34.1156 24.8063 34.1109C24.7875 34.1109 24.7688 34.1109 24.75 34.1062C24.6984 34.1015 24.6516 34.1015 24.6 34.0968C24.5766 34.0968 24.5531 34.0922 24.5297 34.0922C24.4688 34.0875 24.4078 34.0875 24.3469 34.0875C24.3094 34.0875 24.2766 34.0828 24.2391 34.0828C24.1828 34.0828 24.1266 34.0828 24.075 34.0781H23.4234C23.3156 34.0781 23.2078 34.0828 23.1 34.0875C23.0578 34.0875 23.0109 34.0922 22.9688 34.0922C22.9313 34.0922 22.8984 34.0968 22.8609 34.0968C22.7953 34.1015 22.7297 34.1062 22.6687 34.1109C22.6031 34.1156 22.5422 34.1203 22.4766 34.125C22.4109 34.1297 22.35 34.1343 22.2844 34.1437C22.2562 34.1437 22.2281 34.1484 22.2 34.1531L21.8344 34.1953C21.7828 34.2 21.7359 34.2094 21.6844 34.214C21.6375 34.2187 21.5859 34.2281 21.5391 34.2328C21.3891 34.2562 21.2391 34.275 21.0937 34.3031C21.0609 34.3078 21.0281 34.3125 20.9953 34.3218C20.9531 34.3265 20.9156 34.3359 20.8734 34.3453C20.8219 34.3547 20.7656 34.364 20.7141 34.3734C20.6719 34.3828 20.6344 34.3875 20.5922 34.3968C20.5734 34.4015 20.5547 34.4015 20.5406 34.4062C20.5078 34.4109 20.475 34.4203 20.4422 34.425C20.3859 34.439 20.3297 34.4484 20.2734 34.4625C20.2172 34.4765 20.1609 34.4859 20.1047 34.5C20.0953 34.5 20.0859 34.5047 20.0766 34.5047C20.0531 34.5093 20.0297 34.514 20.0062 34.5234C19.9547 34.5375 19.8984 34.5515 19.8422 34.5656C19.7812 34.5797 19.725 34.5937 19.6641 34.6125C19.6453 34.6172 19.6219 34.6218 19.5984 34.6312C19.5375 34.65 19.4719 34.664 19.4109 34.6828C19.3406 34.7015 19.2703 34.725 19.1953 34.7437C19.1484 34.7578 19.0969 34.7718 19.05 34.7906C18.9516 34.8187 18.8578 34.8515 18.7594 34.8843C18.7266 34.8937 18.6937 34.9078 18.6609 34.9172C17.9578 33.6281 17.3766 32.2734 16.9266 30.8765C16.3781 29.1843 16.0266 27.4265 15.8719 25.6453C15.8437 25.3312 15.825 25.0218 15.8109 24.7078C15.8062 24.6515 15.8062 24.5953 15.8062 24.539C15.8016 24.4828 15.8016 24.4265 15.8016 24.3703C15.8016 24.314 15.7969 24.2578 15.7969 24.2015C15.7969 24.1453 15.7922 24.089 15.7922 24.0281C16.6734 23.3718 17.6297 22.8187 18.6516 22.3875C20.3437 21.6703 22.1438 21.3093 24 21.3093C25.8563 21.3093 27.6562 21.675 29.3484 22.3875C30.3703 22.8187 31.3266 23.3672 32.2078 24.0281V24.0328C32.2078 24.0797 32.2078 24.1218 32.2031 24.1687C32.2031 24.2343 32.1984 24.3 32.1984 24.3703C32.1984 24.4031 32.1984 24.4312 32.1938 24.464C32.1891 24.5484 32.1891 24.6281 32.1844 24.7125C32.1703 25.0265 32.1469 25.3359 32.1234 25.65C31.9688 27.4547 31.6078 29.2359 31.0453 30.9468C30.5906 32.3672 30 33.7312 29.2828 35.0297ZM35.6953 39.2906C34.4063 37.8879 32.8777 36.726 31.1813 35.8593C32.5453 33.3422 33.5016 30.5718 33.9656 27.6328C34.5656 28.4343 35.0625 29.3015 35.4563 30.2343C36.1031 31.7672 36.4313 33.3937 36.4313 35.0718C36.4313 36.525 36.1828 37.9453 35.6953 39.2906Z" fill="white"/>
<path d="M24 38.4047C24.4078 38.4047 25.1578 39.4781 25.1578 41.2359C25.1578 42.9937 24.4078 44.0672 24 44.0672C23.5922 44.0672 22.8422 42.9937 22.8422 41.2359C22.8422 39.4781 23.5922 38.4047 24 38.4047ZM24 37.4672C22.8422 37.4672 21.9047 39.1547 21.9047 41.2359C21.9047 43.3172 22.8422 45.0047 24 45.0047C25.1578 45.0047 26.0953 43.3172 26.0953 41.2359C26.0953 39.1547 25.1578 37.4672 24 37.4672Z" fill="#E73B37"/>
</svg>
