<svg width="48" height="48" viewBox="0 0 48 48" fill="none" xmlns="http://www.w3.org/2000/svg">
<g clip-path="url(#clip0_75_238)">
<path d="M28.1953 24.9281H41.2641V25.6781H28.1953V24.9281ZM29.9672 30.8156H40.4672V31.5656H29.9672V30.8156ZM32.1937 36.5156H39.7312V37.2656H32.1937V36.5156Z" fill="#F73737"/>
<path d="M8.13909 38.4907H0.915649V14.95H8.20002L8.13909 38.4907ZM2.97815 36.4282H6.08127L6.13284 17.0125H2.97815V36.4282ZM36.536 38.4907H10.6047L10.586 14.9594L27.686 -0.490601L31.6797 3.79846L28.5485 13.0188H43.0797L36.536 38.4907ZM12.6625 36.4282H34.9375L40.4219 15.0813H28.7406L25.6703 15.0766L29.3313 4.30002L27.5594 2.40159L12.6485 15.8735L12.6625 36.4282Z" fill="white"/>
</g>
<defs>
<clipPath id="clip0_75_238">
<rect width="48" height="48" fill="white"/>
</clipPath>
</defs>
</svg>
