<svg width="48" height="48" viewBox="0 0 48 48" fill="none" xmlns="http://www.w3.org/2000/svg">
<path d="M23.5312 24C23.5312 24.1243 23.5806 24.2435 23.6685 24.3315C23.7565 24.4194 23.8757 24.4688 24 24.4688C24.1243 24.4688 24.2435 24.4194 24.3315 24.3315C24.4194 24.2435 24.4688 24.1243 24.4688 24C24.4688 23.8757 24.4194 23.7565 24.3315 23.6685C24.2435 23.5806 24.1243 23.5313 24 23.5312C23.8757 23.5313 23.7565 23.5806 23.6685 23.6685C23.5806 23.7565 23.5313 23.8757 23.5312 24Z" fill="#E73B37"/>
<path d="M24 14.3812C25.2984 14.3812 26.5594 14.6344 27.7406 15.1359C28.8844 15.6187 29.9156 16.3125 30.7969 17.1984C31.6781 18.0844 32.3719 19.1109 32.8594 20.2547C33.3609 21.4406 33.614 22.6969 33.614 23.9953C33.614 25.2937 33.3609 26.5547 32.8594 27.7359C32.3766 28.8797 31.6828 29.9109 30.7969 30.7922C29.9156 31.6734 28.8844 32.3672 27.7406 32.8547C26.5547 33.3562 25.2984 33.6094 24 33.6094C22.7016 33.6094 21.4406 33.3562 20.2594 32.8547C19.1156 32.3719 18.0844 31.6781 17.2031 30.7922C16.3219 29.9109 15.6281 28.8797 15.1406 27.7359C14.6391 26.55 14.3859 25.2937 14.3859 23.9953C14.3859 22.6969 14.6391 21.4359 15.1406 20.2547C15.6234 19.1109 16.3172 18.0797 17.2031 17.1984C18.0891 16.3172 19.1156 15.6234 20.2594 15.1359C21.4406 14.639 22.7016 14.3812 24 14.3812ZM24 13.35C18.1219 13.35 13.3547 18.1172 13.3547 23.9953C13.3547 29.8734 18.1219 34.6453 24 34.6453C29.8781 34.6453 34.6453 29.8781 34.6453 24C34.6453 18.1219 29.8781 13.35 24 13.35Z" fill="white"/>
<path d="M24 29.0015C21.2391 29.0015 18.9938 26.7562 18.9938 23.9953C18.9938 21.2343 21.2391 18.989 24 18.989C26.761 18.989 29.0063 21.2343 29.0063 23.9953C29.0063 26.7562 26.761 29.0015 24 29.0015ZM24 19.9312C21.7547 19.9312 19.9313 21.7546 19.9313 24C19.9313 26.2453 21.7547 28.0687 24 28.0687C26.2453 28.0687 28.0688 26.2453 28.0688 24C28.0688 21.7546 26.2453 19.9312 24 19.9312Z" fill="#E73B37"/>
<path d="M25.5094 5.02966L27.1078 9.35623L27.4547 10.289L28.4015 10.5984C28.8844 10.7578 29.9062 11.2031 30.4359 11.4468L31.3125 11.85L32.1843 11.4328L36.3047 9.47341L38.4797 11.6531L36.5484 15.8437L36.1312 16.7484L36.5812 17.639C36.9 18.2672 37.1719 18.9281 37.3969 19.6031L37.7109 20.564L38.6625 20.9015L42.9609 22.4297V25.5094L38.6344 27.1078L37.7015 27.4547L37.3922 28.4015C37.1719 29.0765 36.8953 29.7328 36.5765 30.3656L36.1172 31.2703L36.5531 32.1843L38.5125 36.3047L36.3328 38.4844L32.1562 36.5484L31.2515 36.1312L30.3609 36.5812C29.7328 36.9 29.0718 37.1719 28.3969 37.3969L27.4359 37.7109L27.0984 38.6625L25.5703 42.9609H22.4906L20.8922 38.6344L20.5453 37.7015L19.5984 37.3922C19.1156 37.2328 18.0937 36.7875 17.564 36.5437L16.6875 36.1406L15.8156 36.5578L11.6953 38.5172L9.52029 36.3375L11.4515 32.1515L11.8687 31.2468L11.4187 30.3562C11.1 29.7281 10.8281 29.0672 10.6031 28.3922L10.289 27.4312L9.33748 27.0937L5.03904 25.5656V22.4859L9.3656 20.8875L10.2984 20.5406L10.6078 19.5937C10.7672 19.1109 11.2125 18.089 11.4562 17.5594L11.8594 16.6828L11.4422 15.8109L9.48279 11.6906L11.6578 9.5156L15.8437 11.4468L16.7484 11.864L17.639 11.414C18.2672 11.0953 18.9281 10.8234 19.6031 10.5984L20.564 10.2844L20.9015 9.33279L22.4297 5.03435H25.5094M26.9484 2.96716H20.9719L18.9562 8.63904C18.1781 8.89685 17.4234 9.20623 16.7015 9.57185L11.2078 7.0406L6.98435 11.264L9.57185 16.7015C9.57185 16.7015 8.89216 18.1734 8.63904 18.9562L2.96716 21.0515V27.0234L8.63904 29.039C8.89685 29.8172 9.20623 30.5672 9.57185 31.289L7.0406 36.7828L11.264 41.0062L16.7015 38.4187C16.7015 38.4187 18.1734 39.0984 18.9562 39.3515L21.0515 45.0234H27.0234L29.039 39.3515C29.8172 39.0937 30.5672 38.7844 31.289 38.4187L36.7828 40.95L41.0062 36.7265L38.4187 31.289C38.7844 30.5672 39.0984 29.8172 39.3515 29.039L45.0234 26.9437V20.9719L39.3515 18.9562C39.0937 18.1781 38.7844 17.4281 38.4187 16.7062L40.95 11.2125L36.7265 6.98904L31.2937 9.57654C31.2937 9.57654 29.8172 8.89685 29.039 8.64373L26.9484 2.96716Z" fill="white"/>
</svg>
