<svg width="79" height="92" viewBox="0 0 79 92" fill="none" xmlns="http://www.w3.org/2000/svg">
<rect x="25.2877" width="56" height="78" rx="6" transform="rotate(18.9172 25.2877 0)" fill="#FF5959"/>
<rect x="20.0691" y="1.48804" width="56" height="78" rx="6" transform="rotate(13.5768 20.0691 1.48804)" fill="#98B6CB"/>
<rect x="15.0892" y="3.3197" width="56" height="78" rx="6" transform="rotate(8.34646 15.0892 3.3197)" fill="#7B80FF"/>
<rect x="9.5202" y="7.14099" width="54" height="76" rx="5" fill="black" stroke="#A8A8A8" stroke-width="2"/>
<path d="M16.7663 38.141C16.3106 38.141 16.0827 37.8969 16.0827 37.4086V24.8695C16.0827 24.3812 16.3106 24.1371 16.7663 24.1371H25.1452C25.6335 24.1371 25.8776 24.3487 25.8776 24.7719V25.9242C25.8776 26.3474 25.6335 26.559 25.1452 26.559H18.9343V29.6644H24.6276C25.1159 29.6644 25.36 29.876 25.36 30.2992V31.4515C25.36 31.8747 25.1159 32.0863 24.6276 32.0863H18.9343V35.7191H25.4577C25.946 35.7191 26.1901 35.9307 26.1901 36.3539V37.5062C26.1901 37.9294 25.946 38.141 25.4577 38.141H16.7663ZM29.2663 38.141C28.8106 38.141 28.5827 37.8969 28.5827 37.4086V24.8695C28.5827 24.3812 28.8106 24.1371 29.2663 24.1371H32.0983C32.4759 24.1371 32.7461 24.3975 32.9089 24.9183L35.5554 33.4828C35.6725 33.8539 35.7539 34.1599 35.7995 34.4008C35.8451 34.6351 35.8841 34.9151 35.9167 35.2406H35.9753C36.0078 34.9151 36.0469 34.6351 36.0925 34.4008C36.138 34.1599 36.2194 33.8539 36.3366 33.4828L38.9831 24.9183C39.1459 24.3975 39.416 24.1371 39.7936 24.1371H42.6257C43.0814 24.1371 43.3093 24.3812 43.3093 24.8695V37.4086C43.3093 37.8969 43.0814 38.141 42.6257 38.141H41.1413C40.6856 38.141 40.4577 37.8969 40.4577 37.4086V29.3422C40.4577 28.9515 40.474 28.5609 40.5065 28.1703H40.4382L37.6159 37.35C37.4531 37.8773 37.1732 38.141 36.7761 38.141H35.1159C34.7188 38.141 34.4388 37.8773 34.2761 37.35L31.4538 28.1703H31.3854C31.418 28.5609 31.4343 28.9515 31.4343 29.3422V37.4086C31.4343 37.8969 31.2064 38.141 30.7507 38.141H29.2663ZM45.5358 24.7816C45.3731 24.3519 45.5261 24.1371 45.9948 24.1371H47.5475C47.9837 24.1371 48.2832 24.3617 48.446 24.8109L51.4343 32.9652C51.584 33.3819 51.6719 33.6618 51.6979 33.8051C51.724 33.9418 51.7533 34.1729 51.7858 34.4984H51.8249C51.8574 34.1729 51.8867 33.9418 51.9128 33.8051C51.9388 33.6618 52.0267 33.3819 52.1765 32.9652L55.1647 24.8109C55.3275 24.3617 55.627 24.1371 56.0632 24.1371H57.6159C58.0847 24.1371 58.2377 24.3519 58.0749 24.7816L53.4069 37.35C53.2116 37.8773 52.9056 38.141 52.489 38.141H51.1218C50.7051 38.141 50.3991 37.8773 50.2038 37.35L45.5358 24.7816ZM16.7663 67.141C16.3106 67.141 16.0827 66.8969 16.0827 66.4086V53.8695C16.0827 53.3812 16.3106 53.1371 16.7663 53.1371H20.4186C22.7624 53.1371 24.3867 53.5179 25.2917 54.2797C26.2031 55.0414 26.6589 56.1221 26.6589 57.5219C26.6589 58.9216 26.2031 60.0023 25.2917 60.764C24.3867 61.5258 22.7624 61.9066 20.4186 61.9066H18.9343V66.4086C18.9343 66.8969 18.7064 67.141 18.2507 67.141H16.7663ZM18.9343 59.5238H20.4089C21.711 59.5238 22.5964 59.3708 23.0651 59.0648C23.5339 58.7523 23.7682 58.238 23.7682 57.5219C23.7682 56.8057 23.5339 56.2946 23.0651 55.9886C22.5964 55.6761 21.711 55.5199 20.4089 55.5199H18.9343V59.5238ZM29.735 67.141C29.2793 67.141 29.0515 66.8969 29.0515 66.4086V53.8695C29.0515 53.3812 29.2793 53.1371 29.735 53.1371H34.2565C36.2682 53.1371 37.7363 53.4496 38.6608 54.0746C39.5853 54.6931 40.0475 55.7022 40.0475 57.1019C40.0475 58.1436 39.6732 58.9737 38.9245 59.5922C38.1758 60.2107 37.2253 60.6208 36.0729 60.8226V60.8422C36.6979 61.0765 37.1699 61.4021 37.489 61.8187C37.808 62.2354 38.0684 62.6 38.2702 62.9125L40.4186 66.3011C40.7767 66.861 40.653 67.141 40.0475 67.141H38.3483C37.9903 67.141 37.6973 66.9489 37.4694 66.5648L35.4968 63.2738C35.2819 62.9222 34.888 62.5381 34.3151 62.1215C33.7487 61.6983 33.1856 61.4867 32.6257 61.4867H31.903V66.4086C31.903 66.8969 31.6752 67.141 31.2194 67.141H29.735ZM31.903 59.0648H33.6511C34.9531 59.0648 35.8776 58.9183 36.4245 58.6254C36.9779 58.3259 37.2546 57.8539 37.2546 57.2094C37.2546 56.5062 36.9877 56.0505 36.4538 55.8422C35.9265 55.6273 35.1485 55.5199 34.1198 55.5199H31.903V59.0648ZM42.2741 60.139C42.2741 57.8929 42.8535 56.1091 44.0124 54.7875C45.1712 53.4659 46.8249 52.8051 48.9733 52.8051C51.1218 52.8051 52.7754 53.4659 53.9343 54.7875C55.0931 56.1091 55.6725 57.8929 55.6725 60.139C55.6725 62.3851 55.0931 64.169 53.9343 65.4906C52.7754 66.8122 51.1218 67.473 48.9733 67.473C46.8249 67.473 45.1712 66.8122 44.0124 65.4906C42.8535 64.169 42.2741 62.3851 42.2741 60.139ZM45.321 60.139C45.321 61.7666 45.6107 63.0134 46.1901 63.8793C46.7761 64.7386 47.7038 65.1683 48.9733 65.1683C50.2429 65.1683 51.1673 64.7386 51.7468 63.8793C52.3327 63.0134 52.6257 61.7666 52.6257 60.139C52.6257 58.5114 52.3327 57.2679 51.7468 56.4086C51.1673 55.5427 50.2429 55.1097 48.9733 55.1097C47.7038 55.1097 46.7761 55.5427 46.1901 56.4086C45.6107 57.2679 45.321 58.5114 45.321 60.139Z" fill="white"/>
</svg>
